<svg width="7" height="10" viewBox="0 0 7 10" fill="none" xmlns="http://www.w3.org/2000/svg">
<path d="M0.948059 1.30088L0.579229 0.86441L0.0627236 1.30088L0.579229 1.73734L0.948059 1.30088ZM5.32555 5.00002L5.69438 5.43649L6.21088 5.00002L5.69438 4.56355L5.32555 5.00002ZM1.3041 1.00001L1.67293 0.563544L1.3041 0.251868L0.935266 0.563544L1.3041 1.00001ZM5.68158 4.69915L5.31275 5.13562L5.68158 5.44729L6.05041 5.13562L5.68158 4.69915ZM5.69523 4.68762L6.06406 4.25116L5.69524 3.93948L5.32641 4.25115L5.69523 4.68762ZM6.05127 4.98849L6.4201 5.42495L6.93661 4.98849L6.4201 4.55202L6.05127 4.98849ZM6.03762 5.00002L5.66879 4.56355L5.15228 5.00002L5.66879 5.43649L6.03762 5.00002ZM6.05127 5.01155L6.4201 5.44802L6.93661 5.01155L6.4201 4.57508L6.05127 5.01155ZM5.69523 5.31242L5.32639 5.74888L5.69523 6.06056L6.06406 5.74888L5.69523 5.31242ZM5.68159 5.30088L6.05042 4.86442L5.68159 4.55274L5.31275 4.86442L5.68159 5.30088ZM1.3041 9.00003L0.935266 9.43649L1.3041 9.74817L1.67293 9.43649L1.3041 9.00003ZM0.948059 8.69916L0.579229 8.26269L0.0627236 8.69916L0.579228 9.13563L0.948059 8.69916ZM0.579229 1.73734L4.95672 5.43649L5.69438 4.56355L1.31689 0.86441L0.579229 1.73734ZM0.935266 0.563544L0.579229 0.86441L1.31689 1.73734L1.67293 1.43648L0.935266 0.563544ZM6.05042 4.26269L1.67293 0.563544L0.935266 1.43648L5.31275 5.13562L6.05042 4.26269ZM6.05041 5.13562L6.06406 5.12409L5.32641 4.25115L5.31276 4.26268L6.05041 5.13562ZM5.3264 5.12409L5.68244 5.42495L6.4201 4.55202L6.06406 4.25116L5.3264 5.12409ZM5.68244 4.55202L5.66879 4.56355L6.40645 5.43649L6.4201 5.42495L5.68244 4.55202ZM6.4201 4.57508L6.40645 4.56355L5.66879 5.43649L5.68244 5.44802L6.4201 4.57508ZM6.06406 5.74888L6.4201 5.44802L5.68244 4.57508L5.3264 4.87595L6.06406 5.74888ZM5.31275 5.73735L5.32639 5.74888L6.06407 4.87596L6.05042 4.86442L5.31275 5.73735ZM5.31275 4.86442L0.935267 8.56356L1.67293 9.43649L6.05042 5.73735L5.31275 4.86442ZM1.67293 8.56356L1.31689 8.26269L0.579228 9.13563L0.935266 9.43649L1.67293 8.56356ZM1.31689 9.13563L5.69438 5.43649L4.95672 4.56355L0.579229 8.26269L1.31689 9.13563Z" fill="#0079C4"/>
</svg>
