<svg width="18" height="18" viewBox="0 0 18 18" fill="none" xmlns="http://www.w3.org/2000/svg">
<g clip-path="url(#clip0_1_16)">
<path d="M8.99998 0C7.23936 0 5.81201 1.36374 5.81201 3.04591C5.81201 3.37374 5.86686 3.68814 5.96811 3.98373C6.07357 4.2941 8.64982 8.5546 8.64982 8.5546C8.74685 8.71449 8.87342 8.7951 9.00139 8.7951C9.12936 8.7951 9.25592 8.71449 9.35295 8.5546C9.35295 8.5546 11.9292 4.2941 12.0347 3.98373C12.1359 3.68814 12.1908 3.37374 12.1908 3.04591C12.1908 1.36374 10.7634 0 9.00279 0L8.99998 0ZM8.94232 4.43383C8.28279 4.43383 7.74701 3.92192 7.74701 3.29178C7.74701 2.66164 8.28279 2.14973 8.94232 2.14973C9.60186 2.14973 10.1376 2.66164 10.1376 3.29178C10.1376 3.92192 9.60186 4.43383 8.94232 4.43383Z" fill="#0079C4"/>
<path d="M8.45862 7.83713L9.34877 8.15556C9.55408 7.81429 9.74393 7.49989 9.9169 7.21102L7.58112 6.37396C7.82862 6.78913 8.1183 7.27148 8.45721 7.83578L8.45862 7.83713Z" fill="#0079C4"/>
<path d="M17.5641 6.27453C17.287 6.0918 16.9284 6.05821 16.5811 6.18182L12.3877 7.68395C12.0713 8.21332 11.6972 8.83675 11.2486 9.57841V16.8257L7.0425 15.3182C6.9525 15.286 6.85266 15.2618 6.7486 15.2416V9.57841C6.30703 8.8475 5.93719 8.23079 5.6236 7.70679V15.2416C5.51953 15.2618 5.41969 15.286 5.32969 15.3182L1.1236 16.8257V9.13637C1.1236 8.99126 1.27406 8.783 1.4175 8.73195L5.38735 7.30909C5.16938 6.94364 4.98516 6.62924 4.82766 6.36186L1.02235 7.7256C0.438752 7.9352 -0.00140381 8.54116 -0.00140381 9.13637V16.9292C-0.00140381 17.2839 0.157502 17.5929 0.434534 17.7756C0.711565 17.9583 1.07016 17.9919 1.4175 17.8683L5.72625 16.3245C5.9625 16.2399 6.4111 16.2399 6.64735 16.3245L10.9561 17.8683C11.2008 17.9557 11.5059 18 11.8125 18C12.1191 18 12.4242 17.9557 12.6689 17.8683L16.9777 16.3245C17.5613 16.1149 18.0014 15.509 18.0014 14.9138V7.12099C18.0014 6.76628 17.8425 6.45726 17.5655 6.27453H17.5641ZM16.875 14.9138C16.875 15.0589 16.7245 15.2671 16.5811 15.3182L12.375 16.8257V8.80853C12.4791 8.78838 12.5789 8.76419 12.6689 8.73195L16.875 7.22445V14.9138Z" fill="#0079C4"/>
</g>
<defs>
<clipPath id="clip0_1_16">
<rect width="18" height="18" fill="white"/>
</clipPath>
</defs>
</svg>
